<?xml version="1.0" encoding="UTF-8" standalone="no"?>
<svg
   height="48"
   width="48"
   version="1.1"
   id="svg65"
   sodipodi:docname="search.svg"
   inkscape:version="1.2.1 (9c6d41e410, 2022-07-14)"
   xmlns:inkscape="http://www.inkscape.org/namespaces/inkscape"
   xmlns:sodipodi="http://sodipodi.sourceforge.net/DTD/sodipodi-0.dtd"
   xmlns="http://www.w3.org/2000/svg"
   xmlns:svg="http://www.w3.org/2000/svg">
  <defs
     id="defs69" />
  <sodipodi:namedview
     id="namedview67"
     pagecolor="#505050"
     bordercolor="#ffffff"
     borderopacity="1"
     inkscape:showpageshadow="0"
     inkscape:pageopacity="0"
     inkscape:pagecheckerboard="1"
     inkscape:deskcolor="#505050"
     showgrid="false"
     inkscape:zoom="16.145833"
     inkscape:cx="23.969032"
     inkscape:cy="23.194839"
     inkscape:window-width="1920"
     inkscape:window-height="999"
     inkscape:window-x="0"
     inkscape:window-y="0"
     inkscape:window-maximized="1"
     inkscape:current-layer="svg65" />
  <path
     d="M39.7 43.2 26.3 29.8q-1.5 1.15-3.425 1.8-1.925.65-4.225.65-5.75 0-9.675-3.925Q5.05 24.4 5.05 18.75q0-5.65 3.925-9.575Q12.9 5.25 18.55 5.25q5.65 0 9.575 3.925Q32.05 13.1 32.05 18.75q0 2.3-.65 4.175T29.5 26.5L43 39.9ZM18.55 27.7q3.8 0 6.375-2.575T27.5 18.75q0-3.75-2.575-6.35Q22.35 9.8 18.6 9.8q-3.85 0-6.425 2.6Q9.6 15 9.6 18.75q0 3.8 2.575 6.375T18.55 27.7Z"
     id="path63"
     style="fill:#ffffff" />
</svg>
